Coordinates
version=1
nRows=15
nColumns=23
inDegrees=yes

Units are S.I. units (second, meters, Newtons, ...)
If the header above contains a line with 'inDegrees', this indicates whether rotational values are in degrees (yes) or radians (no).

endheader
time	pelvis_tilt	pelvis_list	pelvis_rotation	pelvis_tx	pelvis_ty	pelvis_tz	hip_flexion_r	hip_adduction_r	hip_rotation_r	knee_angle_r	knee_angle_r_beta	ankle_angle_r	subtalar_angle_r	mtp_angle_r	hip_flexion_l	hip_adduction_l	hip_rotation_l	knee_angle_l	knee_angle_l_beta	ankle_angle_l	subtalar_angle_l	mtp_angle_l
      7.50000000	     -1.92254836	     -3.07435984	     -2.94404930	      2.24144197	      0.99133924	      1.00731558	     24.18141882	      4.13400937	     -4.33071680	     39.50479487	      0.68948874	     17.28026727	     -0.45803295	      0.00000000	      5.10442470	     -8.46316084	     -8.34070604	     67.32060792	      1.17496626	    -28.86080405	    -13.22892023	      0.00000000
      7.50666667	     -1.31547660	     -3.26340260	     -2.68495689	      2.23945035	      0.98871655	      1.00737514	     23.27852854	      4.01261988	     -4.83811270	     40.98087872	      0.71525126	     19.12730651	      0.55921671	      0.00000000	      6.27818155	     -8.67953512	     -7.48201225	     69.61464656	      1.21500479	    -27.39311644	    -12.73821577	      0.00000000
      7.51333333	     -0.61539446	     -3.57356604	     -2.42145820	      2.23747382	      0.98684991	      1.00750232	     22.00730886	      4.20285482	     -4.94884583	     41.90931033	      0.73145545	     20.62320214	      0.70499090	      0.00000000	      7.32542324	     -8.98245707	     -6.59770601	     71.65821628	      1.25067181	    -25.76382384	    -12.37325521	      0.00000000
      7.52000000	     -0.05008489	     -3.84093938	     -2.14663339	      2.23557347	      0.98535051	      1.00760368	     20.72139397	      4.36122410	     -5.07304380	     42.54766735	      0.74259688	     22.04467400	      0.81516077	      0.00000000	      8.51415605	     -9.17927157	     -5.67312632	     73.47668868	      1.28241014	    -23.95783954	    -12.11175719	      0.00000000
      7.52666667	      0.33879636	     -4.02021875	     -1.85976126	      2.23383466	      0.98417267	      1.00771112	     19.50062317	      4.32502294	     -5.49333564	     42.99265178	      0.75036333	     23.33387186	      1.63687970	      0.00000000	      9.86979481	     -9.26807060	     -4.78837227	     75.05776117	      1.31000506	    -21.94038448	    -11.69164855	      0.00000000
      7.53333333	      0.54372553	     -4.20041871	     -1.55301017	      2.23225343	      0.98339457	      1.00785669	     18.29470700	      4.40947487	     -5.70904222	     43.07706720	      0.75183665	     24.39249301	      1.87679077	      0.00000000	     11.39841241	     -9.31774679	     -3.88078446	     76.39383498	      1.33332395	    -19.86190546	    -11.42998858	      0.00000000
      7.54000000	      0.59092926	     -4.28739261	     -1.29831675	      2.23092076	      0.98298836	      1.00814301	     17.12745229	      4.38740075	     -5.99192815	     42.94549561	      0.74954030	     25.33981263	      2.41637898	      0.00000000	     13.01951300	     -9.26925960	     -3.09718882	     77.44960713	      1.35175065	    -17.65122871	    -11.17326472	      0.00000000
      7.54666667	      0.60699465	     -4.17679488	     -1.29617429	      2.22969803	      0.98327171	      1.00877418	     15.87768463	      4.35004893	     -5.73975805	     42.56790741	      0.74295014	     26.10568170	      2.68291275	      0.00000000	     14.48404144	     -9.00052621	     -2.62255273	     78.08232366	      1.36279364	    -15.69685142	    -11.53349797	      0.00000000
      7.55333333	      0.38133392	     -4.21414091	     -0.88195989	      2.22886259	      0.98348489	      1.00887654	     14.75876669	      4.14032200	     -6.51210065	     42.03710286	      0.73368585	     26.84653519	      3.75544067	      0.00000000	     16.33221031	     -8.87244796	     -1.85132975	     78.67522071	      1.37314164	    -13.28255778	    -10.94717722	      0.00000000
      7.56000000	      0.16427519	     -4.09093581	     -0.72214285	      2.22813264	      0.98444447	      1.00932449	     13.51175061	      4.01842892	     -6.59016124	     41.21550351	      0.71934624	     27.26811723	      4.14787871	      0.00000000	     17.95643551	     -8.57040229	     -1.39481228	     78.82973609	      1.37583844	    -11.22132581	    -11.04288797	      0.00000000
      7.56666667	     -0.09192000	     -3.80959060	     -0.79159167	      2.22741182	      0.98582622	      1.01003208	     12.28222443	      3.83966306	     -6.28413267	     40.31118820	      0.70356296	     27.55312995	      4.49747811	      0.00000000	     19.45546200	     -8.15852111	     -1.27092596	     78.64540871	      1.37262132	     -9.36587980	    -11.43224119	      0.00000000
      7.57333333	     -0.18007824	     -3.69303277	     -0.56473002	      2.22719133	      0.98782316	      1.01030267	     10.67437125	      3.68633049	     -6.55944986	     39.07300105	      0.68195252	     27.65023641	      5.10452998	      0.00000000	     20.74252787	     -7.89815398	     -1.00132451	     78.23795651	      1.36550994	     -7.38848501	    -11.38392913	      0.00000000
      7.58000000	     -0.27119252	     -3.43066875	     -0.53670131	      2.22696968	      0.99023836	      1.01069366	      9.06395801	      3.45680153	     -6.51120059	     37.77613386	      0.65931791	     27.60457458	      5.59530564	      0.00000000	     21.85911684	     -7.49689893	     -0.99552017	     77.49259361	      1.35250090	     -5.67300691	    -11.72308168	      0.00000000
      7.58666667	     -0.57498890	     -3.05475243	     -0.69201196	      2.22676894	      0.99268971	      1.01130585	      7.73269851	      3.16382932	     -6.19607031	     36.52940176	      0.63755833	     27.37206829	      6.04300433	      0.00000000	     23.07943539	     -7.08383478	     -1.29844899	     76.48799503	      1.33496735	     -4.22024190	    -12.17615346	      0.00000000
      7.59333333	     -0.29747199	     -2.81041264	     -0.66812132	      2.22700995	      0.99633486	      1.01158498	      5.55634245	      2.97741937	     -6.10502304	     34.85578537	      0.60834822	     26.84040454	      6.53820200	      0.00000000	     23.52357490	     -6.78102517	     -1.55229105	     75.12811380	      1.31123295	     -3.01914109	    -12.56316857	      0.00000000
